<svg viewBox="0 0 150 150" xmlns="http://www.w3.org/2000/svg" xmlns:xlink="http://www.w3.org/1999/xlink">
  <defs/>
  <g>
    <path stroke="none" fill="#ffffff" d="M130.6 16.05 L129.8 16.05 19.4 16.05 19.15 16.05 18.9 16.9 18.35 17.15 18.1 17.15 17.3 17.15 17.3 18.2 17 18.2 16.75 19 16.2 19.3 15.95 19.3 15.95 129.65 15.95 130.7 16.2 130.7 Q16.5 130.7 16.75 131 L17 131.8 17.3 131.8 17.55 132.6 18.1 132.85 18.35 132.85 Q18.6 132.85 18.9 133.15 L19.15 133.95 19.4 133.95 129.8 133.95 130.6 133.95 131.65 133.95 Q132.2 133.95 132.45 133.65 L132.7 132.85 133.5 132.6 133.8 131.8 134.85 131.5 135.1 130.7 135.1 129.65 135.1 128.55 135.1 20.35 135.1 19.3 134.85 18.5 Q134.55 18.2 133.8 18.2 L133.5 17.4 Q133.25 17.15 132.7 17.15 L132.45 16.35 Q132.2 16.05 131.65 16.05 L130.6 16.05 M142.55 4.3 Q142.55 4.8 142.8 5.1 L143.6 5.35 Q143.6 5.9 143.9 6.15 144.15 6.45 144.7 6.45 144.7 6.95 144.95 7.25 L145.75 7.5 145.75 8.55 Q145.75 9.1 146 9.4 L146.8 9.65 Q146.8 10.2 147.05 10.45 L147.85 10.7 147.85 11.8 Q147.85 12.3 148.15 12.6 L148.95 12.85 148.95 13.95 148.95 15 Q148.95 15.55 149.2 15.8 L150 16.05 150 17.15 150 18.2 150 130.7 150 131.8 150 132.85 150 133.95 148.95 133.95 148.95 135 148.95 136.05 148.95 137.15 147.85 137.15 147.85 138.2 147.85 139.3 146.8 139.3 146.8 140.35 145.75 140.35 145.75 141.45 145.75 142.5 144.7 142.5 144.7 143.55 143.6 143.55 143.6 144.65 142.55 144.65 142.55 145.7 141.5 145.7 140.45 145.7 140.45 146.8 139.35 146.8 138.3 146.8 138.3 147.85 137.25 147.85 136.15 147.85 136.15 148.95 135.1 148.95 134.05 148.95 133.8 148.95 133 148.95 132.7 149.75 131.9 150 130.85 150 130.6 150 129.8 150 128.7 150 19.4 150 19.15 149.2 18.4 148.95 18.9 149.2 19.15 150 18.1 150 17 150 16.2 149.75 Q15.95 149.45 15.95 148.95 L15.15 148.95 14.9 148.15 Q14.65 147.85 14.15 147.85 L14.65 148.15 14.9 148.95 13.85 148.95 Q13.3 148.95 13.05 148.65 12.75 148.4 12.75 147.85 L11.95 147.85 11.7 147.05 10.95 146.8 11.45 147.05 11.7 147.85 10.9 147.6 Q10.65 147.3 10.65 146.8 L9.85 146.8 Q9.85 146.25 9.55 146 9.3 145.7 8.85 145.7 9.05 145.7 9.3 146 L9.55 146.8 8.8 146.5 Q8.5 146.25 8.5 145.7 L8.8 145.7 8.5 144.9 7.75 144.65 8.25 144.9 8.5 145.7 7.7 145.45 Q7.45 145.2 7.45 144.65 L7.7 144.65 7.45 143.85 Q7.2 143.55 6.7 143.55 6.9 143.55 7.2 143.85 L7.45 144.65 Q6.9 144.65 6.65 144.4 L6.4 143.55 6.65 143.55 6.4 142.75 5.65 142.5 6.1 142.75 6.4 143.55 5.6 143.3 Q5.3 143.05 5.3 142.5 L5.6 142.5 Q5.6 141.95 5.3 141.7 5.05 141.45 4.55 141.45 L5.05 141.7 5.3 142.5 4.5 142.25 Q4.25 141.95 4.25 141.45 L4.5 141.45 4.5 140.35 4.25 139.55 3.55 139.3 Q3.75 139.35 4 139.55 L4.25 140.35 4.25 141.45 Q3.7 141.45 3.45 141.15 3.2 140.9 3.2 140.35 L3.2 139.3 Q2.65 139.3 2.4 139 2.15 138.75 2.15 138.2 L1.35 137.95 Q1.05 137.7 1.05 137.15 L1.05 136.05 1.05 135 0.25 134.75 Q0 134.45 0 133.95 L0 132.85 0 131.8 0 18.2 0 17.15 0 16.05 0 15 1.05 15 1.05 13.95 1.05 12.85 1.05 11.8 2.15 11.8 2.15 10.7 3.2 10.7 3.2 9.65 3.2 8.55 4.25 8.55 4.25 7.5 5.3 7.5 5.3 6.45 6.4 6.45 6.4 5.35 7.45 5.35 7.45 4.3 8.5 4.3 8.5 3.2 9.3 3.2 9.85 3.2 10.65 3.2 10.65 2.15 11.45 2.15 12.25 2.15 12.75 2.15 12.75 1.05 13.85 1.05 14.65 1.05 15.45 1.05 15.95 1.05 15.95 0 17 0 128.7 0 129.5 0 129.8 0 130.6 0 130.85 0 131.9 0 Q132.45 0 132.7 0.25 L133 1.05 133.8 1.05 134.05 1.05 135.1 1.05 136.15 1.05 Q136.15 1.6 136.45 1.9 L137.25 2.15 138.3 2.15 Q138.3 2.7 138.55 2.95 L139.35 3.2 140.45 3.2 Q140.45 3.75 140.7 4 L141.5 4.3 142.55 4.3 M46.55 41 L46.8 41.8 47.6 42.05 47.85 42.85 Q48.4 42.85 48.65 43.15 48.95 43.4 48.95 43.95 L50 43.95 50.8 44.2 51.05 45 Q51.6 45 51.85 45.25 L52.15 46.05 Q52.65 46.05 52.95 46.35 L53.2 47.15 54 47.4 54.25 48.2 Q54.8 48.2 55.05 48.5 L55.3 49.3 56.1 49.55 Q56.4 49.8 56.4 50.35 56.9 50.35 57.2 50.65 L57.45 51.45 58.25 51.7 58.5 52.5 59.3 52.75 59.55 53.55 Q60.1 53.55 60.35 53.85 L60.65 54.65 Q61.15 54.65 61.45 54.9 L61.7 55.7 62.75 55.7 Q63.3 55.7 63.55 56 63.85 56.25 63.85 56.8 64.35 56.8 64.65 57.05 L64.9 57.85 Q65.45 57.85 65.7 58.15 L65.95 58.95 66.75 59.2 67 60 67.8 60.25 68.1 61.05 Q68.6 61.05 68.9 61.35 L69.15 62.15 Q69.7 62.15 69.95 62.4 L70.2 63.2 Q70.75 63.2 71 63.5 L71.3 64.3 Q71.8 64.3 72.05 64.55 L72.35 65.35 Q72.85 65.35 73.15 65.65 L73.4 66.45 Q73.95 66.45 74.2 66.7 L74.45 67.5 75.55 67.5 Q76.05 67.5 76.35 67.75 L76.6 68.55 Q77.15 68.55 77.4 68.85 L77.65 69.65 77.65 70.7 Q78.2 70.7 78.45 71 L78.7 71.8 78.7 72.85 Q80.6 73.15 79.8 76.05 L79.8 77.15 79.5 77.95 78.7 78.2 78.45 79 Q78.2 79.3 77.65 79.3 L77.65 80.35 77.4 81.15 Q77.15 81.45 76.6 81.45 L76.35 82.25 75.55 82.5 74.45 82.5 74.2 83.3 73.4 83.55 73.15 84.4 72.35 84.65 72.05 85.45 71.3 85.7 71 86.5 Q70.75 86.8 70.2 86.8 L69.95 87.6 69.15 87.85 68.9 88.65 68.1 88.95 67.8 89.75 67 90 66.75 90.8 65.95 91.05 65.7 91.9 64.9 92.15 64.65 92.95 63.85 93.2 63.55 94 62.75 94.3 61.7 94.3 61.45 95.1 60.65 95.35 60.35 96.15 59.55 96.45 59.3 97.25 58.5 97.5 58.25 98.3 57.45 98.55 57.2 99.4 56.4 99.65 56.1 100.45 55.3 100.7 55.05 101.5 Q54.8 101.8 54.25 101.8 L54 102.6 53.2 102.85 52.95 103.65 Q52.65 103.95 52.15 103.95 L51.85 104.75 51.05 105 50.8 105.8 50 106.05 48.95 106.05 48.65 106.9 47.85 107.15 47.6 107.95 46.8 108.2 46.55 109 45.75 109.3 45.5 110.1 44.7 110.35 44.4 111.15 Q44.15 111.45 43.6 111.45 L42.55 111.45 42.3 112.25 41.5 112.5 40.45 112.5 38.3 112.5 37.5 112.25 Q37.25 111.95 37.25 111.45 L36.15 111.45 35.35 111.15 Q35.1 110.9 35.1 110.35 L34.3 110.1 Q34.05 109.8 34.05 109.3 L33.25 109 Q33 108.75 33 108.2 L32.2 107.95 Q31.9 107.7 31.9 107.15 L31.9 106.05 31.9 102.85 31.9 101.8 31.9 100.7 33 100.7 33 99.65 34.05 99.65 34.05 98.55 35.1 98.55 35.1 97.5 36.15 97.5 36.15 96.45 37.25 96.45 37.25 95.35 38.3 95.35 38.3 94.3 39.35 94.3 39.35 93.2 40.45 93.2 40.45 92.15 41.5 92.15 41.5 91.05 42.55 91.05 42.55 90 43.6 90 43.6 88.95 44.7 88.95 Q45.2 88.4 45.75 88.15 L46.8 87.85 46.8 86.8 47.85 86.8 47.85 85.7 48.95 85.7 48.95 84.65 50 84.65 50 83.55 51.05 83.55 51.05 82.5 52.15 82.5 52.15 81.45 53.2 81.45 53.2 80.35 54.25 80.35 54.25 79.3 55.3 79.3 55.3 78.2 56.4 78.2 57.45 77.4 Q58 77.15 58.5 77.15 L58.5 76.05 59.55 76.05 59.55 75 59.55 73.95 58.8 73.65 Q58.5 73.4 58.5 72.85 L57.45 72.6 56.4 71.8 55.6 71.5 Q55.3 71.25 55.3 70.7 L54.5 70.45 Q54.25 70.2 54.25 69.65 L53.45 69.4 Q53.2 69.1 53.2 68.55 52.65 68.55 52.4 68.3 52.15 68.05 52.15 67.5 L51.35 67.25 Q51.05 66.95 51.05 66.45 50.55 66.45 50.25 66.15 50 65.9 50 65.35 L49.2 65.1 Q48.95 64.8 48.95 64.3 48.4 64.3 48.15 64 47.85 63.75 47.85 63.2 L47.05 62.95 Q46.8 62.7 46.8 62.15 L45.75 61.9 44.7 61.05 43.9 60.8 Q43.6 60.55 43.6 60 L42.8 59.75 Q42.55 59.45 42.55 58.95 42 58.95 41.75 58.65 41.5 58.4 41.5 57.85 L40.7 57.6 Q40.45 57.3 40.45 56.8 39.9 56.8 39.65 56.5 39.35 56.25 39.35 55.7 L38.55 55.45 Q38.3 55.2 38.3 54.65 L37.5 54.4 37.25 53.55 36.45 53.3 Q36.15 53.05 36.15 52.5 L35.35 52.25 Q35.1 51.95 35.1 51.45 L34.3 51.15 Q34.05 50.9 34.05 50.35 L33.25 50.1 Q33 49.8 33 49.3 32.45 49.3 32.2 49 31.9 48.75 31.9 48.2 L31.9 47.15 31.9 46.05 31.9 45 31.9 43.95 31.9 42.85 31.9 41.8 33 41.8 33 40.7 34.05 40.7 34.05 39.65 35.1 39.65 35.1 38.55 36.15 38.55 37.25 38.55 37.25 37.5 38.3 37.5 40.45 37.5 41.5 37.5 Q42 37.5 42.3 37.75 L42.55 38.55 43.6 38.55 Q44.15 38.55 44.4 38.85 L44.7 39.65 Q45.2 39.65 45.5 39.9 L45.75 40.7 Q46.3 40.7 46.55 41 M70.2 101.8 L71.3 101.8 108.5 101.8 109.55 101.8 110.65 101.8 Q111.15 101.8 111.45 102.05 L111.7 102.85 112.75 102.85 Q113.3 102.85 113.55 103.15 113.85 103.4 113.85 103.95 L114.65 104.2 114.9 105 Q115.45 105 115.7 105.25 L115.95 106.05 115.95 107.15 116.75 108.2 117 109.3 117 110.35 117 111.45 116.75 112.25 115.95 112.5 115.95 113.55 115.7 114.4 114.9 114.65 114.65 115.45 113.85 115.7 113.55 116.5 112.75 116.8 111.7 116.8 111.45 117.6 110.65 117.85 109.55 117.85 108.5 117.85 71.3 117.85 70.2 117.85 69.4 117.6 Q69.15 117.3 69.15 116.8 L68.1 116.8 Q67.55 116.8 67.3 116.5 67 116.25 67 115.7 L66.2 115.45 Q65.95 115.2 65.95 114.65 L65.15 114.4 64.9 113.55 Q64.35 113.55 64.1 113.3 L63.85 112.5 63.85 111.45 63.85 110.35 63.85 109.3 63.85 108.2 63.85 107.15 63.85 106.05 64.9 106.05 64.9 105 65.95 105 65.95 103.95 67 103.95 67 102.85 68.1 102.85 69.15 102.85 69.15 101.8 70.2 101.8"/>
  </g>
</svg>